<svg xmlns="http://www.w3.org/2000/svg" xmlns:xlink="http://www.w3.org/1999/xlink" viewBox="0 0 583.89 558.11"><defs><style>.cls-1{fill:url(#linear-gradient);}</style><linearGradient id="linear-gradient" x1="-17.16" y1="525.55" x2="513.66" y2="-73.04" gradientUnits="userSpaceOnUse"><stop offset="0.01" stop-color="#ff6a00"/><stop offset="1" stop-color="#ee0979"/></linearGradient></defs><g id="Layer_2" data-name="Layer 2"><g id="Layer_1-2" data-name="Layer 1"><path class="cls-1" d="M583.89,175A174.54,174.54,0,0,0,532.61,51.28l0,0a175,175,0,0,0-223-20.4.12.12,0,0,1-.1,0,32.45,32.45,0,0,0-35,0,.11.11,0,0,1-.13,0,175.11,175.11,0,0,0-223,20.41l0,0a175.06,175.06,0,0,0-6.68,240.48l-.17.17L50.5,298c.24.26.5.52.76.78L263.2,510.75a32.43,32.43,0,1,0,57.5,0h0l43.3-43.3L481.09,350.32h0l58.41-58.41-.21-.22A174.36,174.36,0,0,0,583.89,175ZM291.35,45.27c.19,0,.41,0,.63,0a4.78,4.78,0,0,1,.54,0,2.55,2.55,0,0,1,.39,0,12.84,12.84,0,0,1,11.92,11.93c0,.3.05.61.05.93s0,.87-.07,1.28A12.9,12.9,0,0,1,292.91,71h0c-.31,0-.61,0-.91,0s-.65,0-1,0h0a13,13,0,0,1-11.86-11.55v0a11,11,0,0,1-.07-1.3c0-.32,0-.63.05-.93A12.88,12.88,0,0,1,291,45.29,1.51,1.51,0,0,1,291.35,45.27ZM19.51,175A155,155,0,0,1,65.07,65.09l0,0A155.53,155.53,0,0,1,259.22,44.24a.74.74,0,0,1,.35.63l0,13.28a32.28,32.28,0,0,0,3.66,15l-43.3,43.3L350.65,247.16l-247.46-14L58.41,277.93A155,155,0,0,1,19.51,175ZM301.1,534.8a12.68,12.68,0,0,1-8.24,3.75,6.34,6.34,0,0,1-.88,0c-.33,0-.65,0-1,0a12.93,12.93,0,0,1-11.9-11.91c0-.32-.05-.65-.05-1a12.92,12.92,0,1,1,25.83,0,5.56,5.56,0,0,1-.05.91A12.73,12.73,0,0,1,301.1,534.8Zm49.11-81.18-117-117,221.7,12.23ZM473.48,330.35l-290.13-16,153,153.06-29.49,29.51s0,0,0,0a32.21,32.21,0,0,0-29.9,0l-205-205,38.81-38.81,289.8,16.41L247.51,116.41,277,86.92a32.28,32.28,0,0,0,29.9,0l205,205ZM320.73,73.11h0A32.38,32.38,0,0,0,322,46h0A155.57,155.57,0,0,1,518.8,65.07l0,0a155.48,155.48,0,0,1,6.68,212.79Z"/></g></g></svg>