<svg xmlns="http://www.w3.org/2000/svg" viewBox="0 0 1081 542.33"><defs><style>.cls-1{fill:#fff;}</style></defs><g id="Layer_2" data-name="Layer 2"><g id="Layer_1-2" data-name="Layer 1"><rect width="1080" height="540"/><path class="cls-1" d="M447.38,195.59c-13.94-11-31.73-17.25-48.81-17.25-1.76,0-3.54,0-5.29.14-21.35,1.16-30.63,17.9-30.22,33,.43,15.74,11.68,31.68,32.36,31.68h70.11a5,5,0,0,0,5-5h0C470.52,222.67,462.09,207.17,447.38,195.59Zm-52,37.53c-15,0-22.06-11-22.36-22-.29-10.72,6-21.9,20.77-22.7,1.57-.09,3.16-.13,4.74-.13,24.53,0,52.48,15.94,60,38.12a5,5,0,0,1-4.72,6.66Z"/><path class="cls-1" d="M797.78,158.44c-30-33.43-72.37-52.6-116.23-52.6a136.16,136.16,0,0,0-82.76,27.43c-19.13,14.45-34.7,33.94-45.55,56.83a5,5,0,0,1-4.53,2.9h-17.2a5,5,0,0,1-4.53-2.9c-10.86-22.89-26.45-42.38-45.59-56.82a136.27,136.27,0,0,0-82.82-27.43c-43.92,0-86.33,19.19-116.36,52.65-30.28,33.74-44.95,78.08-40.23,121.65a156.57,156.57,0,0,0,156,140c48.68,0,89.44-20.95,128.28-65.92h0a5,5,0,0,0-1.17-7.53l-62-38.18a5,5,0,0,0-6.31.88h0C440,327.93,419.61,337.7,398,337.7a73.55,73.55,0,0,1-61.31-32.06,5,5,0,0,1,4.18-7.74H465.43a71.2,71.2,0,0,0,58.8-31c.36-.53.71-1.05,1-1.59a5,5,0,0,1,4.17-2.24h21.33a4.94,4.94,0,0,1,4.17,2.25c.35.53.7,1.06,1.06,1.59a71.19,71.19,0,0,0,58.79,31H739.19a5,5,0,0,1,4.18,7.74,73.47,73.47,0,0,1-61.26,32.07c-21.58,0-41.9-9.77-58.79-28.25h0a5,5,0,0,0-6.31-.89l-61.93,38.18a5,5,0,0,0-1.16,7.52h0c38.81,45,79.54,65.92,128.19,65.92A156.49,156.49,0,0,0,838,280.14C842.73,236.54,828.07,192.18,797.78,158.44ZM465.43,287.9h-141a5,5,0,0,0-4.66,6.81h0c12.52,32.19,43.24,53,78.26,53,22.1,0,42.93-8.89,60.64-25.8a5,5,0,0,1,6-.64l45,27.71a5,5,0,0,1,1,7.66C476.06,393.58,440.9,410.19,398,410.19a146.59,146.59,0,0,1-146.1-131.11c-4.41-40.76,9.34-82.27,37.73-113.9,28.14-31.35,67.84-49.33,108.92-49.33,55,0,102.5,34.09,123.89,89a61.06,61.06,0,0,1-57,83.08Zm362.65-8.83a146.5,146.5,0,0,1-146,131.11c-42.85,0-78-16.61-112.63-53.56a5,5,0,0,1,1-7.66l44.94-27.71a5,5,0,0,1,6.06.64c17.69,16.91,38.5,25.8,60.59,25.8,35,0,65.68-20.8,78.19-53h0a5,5,0,0,0-4.66-6.81H614.8a61.07,61.07,0,0,1-57-83.07c21.37-54.89,68.81-89,123.79-89,41,0,80.67,18,108.79,49.28C818.74,196.75,832.49,238.29,828.08,279.07Z"/><path class="cls-1" d="M686.84,178.47c-1.76-.09-3.54-.14-5.29-.14-17.07,0-34.84,6.29-48.77,17.25-14.7,11.58-23.12,27.07-23.12,42.52h0a5,5,0,0,0,5,5h70.06c20.67,0,31.92-15.93,32.35-31.67C717.47,196.37,708.19,179.64,686.84,178.47Zm20.22,32.69c-.29,10.92-7.32,22-22.35,22H626.32a5,5,0,0,1-4.72-6.65c7.52-22.19,35.44-38.14,59.95-38.14,1.57,0,3.17.05,4.74.13C701.05,189.26,707.36,200.44,707.06,211.16Z"/><rect x="526.7" y="201.37" width="26.82" height="53.04"/><path d="M528.42,254.41a11.08,11.08,0,0,0-5.41,1.35c-2.35,1.3-5.68,3.85-9.53,8.85-6.1,7.91-13.11-7.53-15.72-14.18a11.59,11.59,0,0,1-.73-5.59l4.7-39.66c.3-2.47,23.15-3.81,25-3.81H542a11.5,11.5,0,0,1,11.51,11.5v30A11.51,11.51,0,0,1,542,254.41Z"/><path d="M526.7,201.37s-5.13.76-7.33-4-10.76,1.52-10.76,1.52l3.06,9.62,15-3.78Z"/><path d="M553.53,201.37s4.76,1.12,8.12-5.7,8,6.44,8,6.44l-.5,9.89v51h-3.62s-5.5-8.61-12-8.61S553.53,201.37,553.53,201.37Z"/><rect width="1080" height="540"/><path class="cls-1" d="M447.38,195.59c-13.94-11-31.73-17.25-48.81-17.25-1.76,0-3.54,0-5.29.14-21.35,1.16-30.63,17.9-30.22,33,.43,15.74,11.68,31.68,32.36,31.68h70.11a5,5,0,0,0,5-5h0C470.52,222.67,462.09,207.17,447.38,195.59Zm-52,37.53c-15,0-22.06-11-22.36-22-.29-10.72,6-21.9,20.77-22.7,1.57-.09,3.16-.13,4.74-.13,24.53,0,52.48,15.94,60,38.12a5,5,0,0,1-4.72,6.66Z"/><path class="cls-1" d="M797.78,158.44c-30-33.43-72.37-52.6-116.23-52.6a136.16,136.16,0,0,0-82.76,27.43c-19.13,14.45-34.7,33.94-45.55,56.83a5,5,0,0,1-4.53,2.9h-17.2a5,5,0,0,1-4.53-2.9c-10.86-22.89-26.45-42.38-45.59-56.82a136.27,136.27,0,0,0-82.82-27.43c-43.92,0-86.33,19.19-116.36,52.65-30.28,33.74-44.95,78.08-40.23,121.65a156.57,156.57,0,0,0,156,140c48.68,0,89.44-20.95,128.28-65.92h0a5,5,0,0,0-1.17-7.53l-62-38.18a5,5,0,0,0-6.31.88h0C440,327.93,419.61,337.7,398,337.7a73.55,73.55,0,0,1-61.31-32.06,5,5,0,0,1,4.18-7.74H465.43a71.2,71.2,0,0,0,58.8-31c.36-.53.71-1.05,1-1.59a5,5,0,0,1,4.17-2.24h21.33a4.94,4.94,0,0,1,4.17,2.25c.35.53.7,1.06,1.06,1.59a71.19,71.19,0,0,0,58.79,31H739.19a5,5,0,0,1,4.18,7.74,73.47,73.47,0,0,1-61.26,32.07c-21.58,0-41.9-9.77-58.79-28.25h0a5,5,0,0,0-6.31-.89l-61.93,38.18a5,5,0,0,0-1.16,7.52h0c38.81,45,79.54,65.92,128.19,65.92A156.49,156.49,0,0,0,838,280.14C842.73,236.54,828.07,192.18,797.78,158.44ZM465.43,287.9h-141a5,5,0,0,0-4.66,6.81h0c12.52,32.19,43.24,53,78.26,53,22.1,0,42.93-8.89,60.64-25.8a5,5,0,0,1,6-.64l45,27.71a5,5,0,0,1,1,7.66C476.06,393.58,440.9,410.19,398,410.19a146.59,146.59,0,0,1-146.1-131.11c-4.41-40.76,9.34-82.27,37.73-113.9,28.14-31.35,67.84-49.33,108.92-49.33,55,0,102.5,34.09,123.89,89a61.06,61.06,0,0,1-57,83.08Zm362.65-8.83a146.5,146.5,0,0,1-146,131.11c-42.85,0-78-16.61-112.63-53.56a5,5,0,0,1,1-7.66l44.94-27.71a5,5,0,0,1,6.06.64c17.69,16.91,38.5,25.8,60.59,25.8,35,0,65.68-20.8,78.19-53h0a5,5,0,0,0-4.66-6.81H614.8a61.07,61.07,0,0,1-57-83.07c21.37-54.89,68.81-89,123.79-89,41,0,80.67,18,108.79,49.28C818.74,196.75,832.49,238.29,828.08,279.07Z"/><path class="cls-1" d="M686.84,178.47c-1.76-.09-3.54-.14-5.29-.14-17.07,0-34.84,6.29-48.77,17.25-14.7,11.58-23.12,27.07-23.12,42.52h0a5,5,0,0,0,5,5h70.06c20.67,0,31.92-15.93,32.35-31.67C717.47,196.37,708.19,179.64,686.84,178.47Zm20.22,32.69c-.29,10.92-7.32,22-22.35,22H626.32a5,5,0,0,1-4.72-6.65c7.52-22.19,35.44-38.14,59.95-38.14,1.57,0,3.17.05,4.74.13C701.05,189.26,707.36,200.44,707.06,211.16Z"/><rect x="526.7" y="201.37" width="26.82" height="53.04"/><path d="M528.42,254.41a11.08,11.08,0,0,0-5.41,1.35c-2.35,1.3-5.68,3.85-9.53,8.85-6.1,7.91-13.11-7.53-15.72-14.18a11.59,11.59,0,0,1-.73-5.59l4.7-39.66c.3-2.47,23.15-3.81,25-3.81H542a11.5,11.5,0,0,1,11.51,11.5v30A11.51,11.51,0,0,1,542,254.41Z"/><path d="M526.7,201.37s-5.13.76-7.33-4-10.76,1.52-10.76,1.52l3.06,9.62,15-3.78Z"/><path d="M553.53,201.37s4.76,1.12,8.12-5.7,8,6.44,8,6.44l-.5,9.89v51h-3.62s-5.5-8.61-12-8.61S553.53,201.37,553.53,201.37Z"/><rect x="1" y="2.33" width="1080" height="540"/><path class="cls-1" d="M448.38,197.93c-13.94-11-31.73-17.26-48.81-17.26-1.76,0-3.54.05-5.29.14-21.35,1.17-30.63,17.91-30.22,33,.43,15.74,11.68,31.68,32.36,31.68h70.11a5,5,0,0,0,5-5h0C471.52,225,463.09,209.5,448.38,197.93Zm-52,37.52c-15,0-22.06-11-22.36-21.95-.29-10.72,6-21.9,20.77-22.7,1.57-.09,3.16-.13,4.74-.13,24.53,0,52.48,15.94,60,38.13a5,5,0,0,1-4.72,6.65Z"/><path class="cls-1" d="M798.78,160.77c-30-33.43-72.37-52.6-116.23-52.6a136.11,136.11,0,0,0-82.76,27.44c-19.13,14.44-34.7,33.93-45.55,56.82a5,5,0,0,1-4.53,2.9h-17.2a5,5,0,0,1-4.53-2.9c-10.86-22.89-26.45-42.38-45.59-56.82a136.34,136.34,0,0,0-82.82-27.43c-43.92,0-86.33,19.19-116.36,52.65-30.28,33.74-44.95,78.08-40.23,121.65a156.56,156.56,0,0,0,156,140c48.68,0,89.44-20.95,128.28-65.92h0a5,5,0,0,0-1.17-7.52l-62-38.19a5,5,0,0,0-6.31.89h0C441,330.26,420.61,340,399,340A73.53,73.53,0,0,1,337.71,308a5,5,0,0,1,4.18-7.74H466.43a71.2,71.2,0,0,0,58.8-31.05c.36-.52.71-1.05,1-1.58a5,5,0,0,1,4.17-2.25h21.33a5,5,0,0,1,4.17,2.25c.35.53.7,1.06,1.06,1.59a71.2,71.2,0,0,0,58.79,31H740.19a5,5,0,0,1,4.18,7.74A73.49,73.49,0,0,1,683.11,340c-21.58,0-41.9-9.77-58.79-28.25h0a5,5,0,0,0-6.31-.88l-61.93,38.18a5,5,0,0,0-1.16,7.52h0c38.81,45,79.54,65.92,128.19,65.92A156.49,156.49,0,0,0,839,282.48C843.73,238.88,829.07,194.52,798.78,160.77ZM466.43,290.23h-141a5,5,0,0,0-4.66,6.81h0C333.28,329.23,364,350,399,350c22.1,0,42.93-8.89,60.64-25.8a5,5,0,0,1,6-.64l45,27.71a5,5,0,0,1,1,7.67C477.06,395.92,441.9,412.52,399,412.52a146.59,146.59,0,0,1-146.1-131.11c-4.41-40.75,9.34-82.27,37.73-113.9,28.14-31.35,67.84-49.33,108.92-49.33,55,0,102.5,34.09,123.89,89a61.06,61.06,0,0,1-57,83.08Zm362.65-8.82a146.5,146.5,0,0,1-146,131.1c-42.85,0-78-16.61-112.63-53.56a5,5,0,0,1,1-7.66l44.94-27.71a5,5,0,0,1,6.06.64C640.21,341.13,661,350,683.11,350c35,0,65.68-20.8,78.19-53h0a5,5,0,0,0-4.66-6.81H615.8a61.07,61.07,0,0,1-57-83.07c21.37-54.89,68.81-89,123.79-89,41,0,80.67,18,108.79,49.28C819.74,199.08,833.49,240.62,829.08,281.41Z"/><path class="cls-1" d="M687.84,180.8c-1.76-.09-3.54-.14-5.29-.14-17.07,0-34.84,6.29-48.77,17.26-14.7,11.57-23.12,27.07-23.12,42.52h0a5,5,0,0,0,5,5h70.06c20.67,0,31.92-15.94,32.35-31.68C718.47,198.71,709.19,182,687.84,180.8Zm20.22,32.69c-.29,10.93-7.32,21.95-22.35,21.95H627.32a5,5,0,0,1-4.72-6.65c7.52-22.19,35.44-38.13,59.95-38.13,1.57,0,3.17,0,4.74.12C702.05,191.59,708.36,202.77,708.06,213.49Z"/><rect x="527.7" y="203.7" width="26.82" height="53.04"/><path d="M529.42,256.74a11.19,11.19,0,0,0-5.41,1.35c-2.35,1.3-5.68,3.85-9.53,8.86-6.1,7.91-13.11-7.54-15.72-14.19a11.55,11.55,0,0,1-.73-5.58l4.7-39.67c.3-2.47,23.15-3.81,25-3.81H543a11.51,11.51,0,0,1,11.51,11.51v30A11.5,11.5,0,0,1,543,256.74Z"/><path d="M527.7,203.7s-5.13.76-7.33-3.94-10.76,1.52-10.76,1.52l3.06,9.61,15-3.78Z"/><path d="M554.53,203.7s4.76,1.12,8.12-5.7,8,6.44,8,6.44l-.5,9.89v51h-3.62s-5.5-8.61-12-8.61S554.53,203.7,554.53,203.7Z"/></g></g></svg>