<svg xmlns="http://www.w3.org/2000/svg" viewBox="0 0 408.01 223.11"><defs><style>.cls-1{fill:#fff;}</style></defs><g id="Layer_2" data-name="Layer 2"><g id="Layer_1-2" data-name="Layer 1"><path class="cls-1" d="M297.16.13a110.8,110.8,0,0,0-52.87,13.33l-6.88,3.7a7.72,7.72,0,0,0-2.76,11.35,147.71,147.71,0,0,1,10.12,17.42,8.24,8.24,0,0,0,11.94,3.15c39.45-26,99.63-7.34,112.12,42.46,13,49.64-24.13,94.31-71.67,94.31-43.92-.13-76.43-36.59-74.49-80.13a7.48,7.48,0,0,0,0-.82,109.94,109.94,0,0,0-1.77-14.37C213.61,51.55,184.67,18.42,147,6,75.55-18.57-.45,35.89,0,111.56c-.32,77,77.65,131.39,149.8,104.65a111.39,111.39,0,0,0,21.39-10.57,8.22,8.22,0,0,0,2.44-11.52,148.77,148.77,0,0,1-9.82-17A8.18,8.18,0,0,0,152,174c-39.44,26.07-99.68,7.42-112.18-42.41-19-72.52,66-122.89,119.94-76.51a74.17,74.17,0,0,1,26,56.48A111.33,111.33,0,0,0,297.16,223C444.93,217.14,445,6,297.16.13Z"/></g></g></svg>