<svg xmlns="http://www.w3.org/2000/svg" viewBox="0 0 535.86 481.48"><defs><style>.cls-1{fill:#fff;}</style></defs><g id="Layer_2" data-name="Layer 2"><g id="Layer_1-2" data-name="Layer 1"><polygon class="cls-1" points="219.93 316.97 434.65 313.71 326.19 423.23 219.93 316.97"/><path class="cls-1" d="M303.4,23.81A151,151,0,0,1,491.59,44.23h0l0,0a150.95,150.95,0,0,1,9.6,203L302.1,48.13a36.67,36.67,0,0,0,1.3-24.32Z"/><path class="cls-1" d="M481.47,267.82,281.93,68.3a36.54,36.54,0,0,1-28,0L229.85,92.41l139.46,140.4H88.86L54.31,267.89,266.13,475.36l6.25,6.12,3.44-3.89L306,443.4,148.46,285.83l313.89.2Z"/><path class="cls-1" d="M44.24,44.26l0,0h0A151,151,0,0,1,232.49,23.86a36.63,36.63,0,0,0,1.31,24.27L189.54,92.39,299,202.69l-221.5,1.16L34.64,247.26a151,151,0,0,1,9.6-203Z"/><circle class="cls-1" cx="267.89" cy="34.51" r="17.04"/></g></g></svg>